<svg width="272.426" height="62.051" viewBox="0 0 272.426 62.051" xmlns="http://www.w3.org/2000/svg">

  <g id="svgGroup" stroke-linecap="round" fill-rule="nonzero" font-size="9pt" stroke="#ffffff"
    stroke-width="0" fill="#fff" style="">

    <path
      d="M 271.235 13.855 L 266.135 13.855 Q 265.455 8.585 261.503 6.545 A 16.289 16.289 0 0 0 257.877 5.224 Q 256.079 4.786 253.952 4.615 A 35.708 35.708 0 0 0 251.09 4.505 A 30.767 30.767 0 0 0 247.233 4.731 Q 242.851 5.286 240.309 7.21 A 9.139 9.139 0 0 0 240.125 7.353 A 9.197 9.197 0 0 0 236.822 12.904 A 14.132 14.132 0 0 0 236.555 15.725 A 13.903 13.903 0 0 0 236.714 17.893 Q 236.9 19.071 237.304 20.039 A 7.239 7.239 0 0 0 237.788 20.995 Q 239.02 23.035 240.975 24.268 Q 242.93 25.5 245.14 26.223 Q 247.35 26.945 249.22 27.455 L 255.765 29.24 Q 258.23 29.92 261.12 30.94 Q 264.01 31.96 266.602 33.745 Q 269.195 35.53 270.81 38.335 A 11.524 11.524 0 0 1 272.058 41.644 Q 272.368 43.059 272.416 44.693 A 20.715 20.715 0 0 1 272.425 45.305 Q 272.425 50.065 270.13 53.89 A 14.166 14.166 0 0 1 265.809 58.366 A 18.947 18.947 0 0 1 263.075 59.883 A 21.765 21.765 0 0 1 258.59 61.326 Q 256.468 61.779 254.003 61.948 A 44.906 44.906 0 0 1 250.92 62.05 A 39.075 39.075 0 0 1 245.206 61.66 Q 239.413 60.802 235.79 58.055 A 14.717 14.717 0 0 1 229.914 47.892 A 18.824 18.824 0 0 1 229.84 47.26 L 235.11 47.26 Q 235.506 50.431 236.878 52.472 A 7.941 7.941 0 0 0 237.745 53.55 A 10.956 10.956 0 0 0 241.626 56.124 A 13.91 13.91 0 0 0 243.228 56.653 Q 246.48 57.517 250.65 57.544 A 41.668 41.668 0 0 0 250.92 57.545 Q 258.74 57.545 263.032 54.528 A 9.743 9.743 0 0 0 267.022 48.285 A 15.469 15.469 0 0 0 267.325 45.135 Q 267.325 42.173 266.229 40.18 A 6.92 6.92 0 0 0 265.497 39.1 A 11.696 11.696 0 0 0 262.298 36.43 A 14.776 14.776 0 0 0 260.653 35.615 A 48.172 48.172 0 0 0 255.863 33.894 A 55.787 55.787 0 0 0 254.15 33.405 L 245.99 31.195 Q 240.764 29.729 237.33 27.404 A 17.869 17.869 0 0 1 235.238 25.755 A 11.461 11.461 0 0 1 231.726 19.237 A 16.791 16.791 0 0 1 231.455 16.15 A 17.375 17.375 0 0 1 231.987 11.757 A 13.78 13.78 0 0 1 233.877 7.523 A 14.923 14.923 0 0 1 238.908 2.89 A 18.806 18.806 0 0 1 240.762 1.955 A 22.326 22.326 0 0 1 245.93 0.437 Q 248.285 0.029 250.962 0.002 A 37.831 37.831 0 0 1 251.345 0 A 34.115 34.115 0 0 1 256.07 0.31 Q 258.537 0.656 260.637 1.385 A 19.801 19.801 0 0 1 261.587 1.743 A 18.797 18.797 0 0 1 265.381 3.787 A 14.87 14.87 0 0 1 268.388 6.588 Q 270.895 9.69 271.235 13.855 Z M 55.76 41.48 L 55.845 37.485 L 86.87 37.485 A 24.85 24.85 0 0 0 86.447 32.766 Q 85.906 29.967 84.671 27.746 A 14.14 14.14 0 0 0 83.597 26.095 A 10.437 10.437 0 0 0 77.658 22.249 Q 75.753 21.76 73.44 21.76 Q 65.96 21.76 62.475 26.35 A 15.153 15.153 0 0 0 60.155 30.949 Q 59.481 33.059 59.197 35.624 A 36.273 36.273 0 0 0 58.99 39.61 Q 58.99 45.3 60.454 49.251 A 14.898 14.898 0 0 0 62.39 52.913 Q 65.23 56.782 71.449 57.419 A 25.381 25.381 0 0 0 74.035 57.545 A 24.555 24.555 0 0 0 76.829 57.397 Q 79.822 57.053 81.634 55.91 A 6.765 6.765 0 0 0 81.983 55.675 Q 84.575 53.805 85.51 50.745 L 90.865 50.745 A 19.755 19.755 0 0 1 88.87 55.163 A 17.792 17.792 0 0 1 87.975 56.483 A 11.465 11.465 0 0 1 84.631 59.463 A 14.749 14.749 0 0 1 82.79 60.393 Q 79.475 61.795 74.035 61.795 A 26.952 26.952 0 0 1 68.216 61.207 Q 62.569 59.957 59.16 56.058 A 18.64 18.64 0 0 1 55.478 49.333 Q 54.603 46.576 54.303 43.251 A 40.444 40.444 0 0 1 54.145 39.61 A 37.087 37.087 0 0 1 54.631 33.406 Q 55.206 30.018 56.465 27.318 A 17.373 17.373 0 0 1 59.117 23.205 A 16.058 16.058 0 0 1 67.775 18.123 A 24.634 24.634 0 0 1 73.44 17.51 A 20.524 20.524 0 0 1 79.638 18.425 A 18.587 18.587 0 0 1 82.578 19.635 A 14.357 14.357 0 0 1 87.483 23.843 A 19.348 19.348 0 0 1 89.207 26.605 Q 91.046 30.159 91.537 35.495 A 45.055 45.055 0 0 1 91.715 39.61 L 91.715 41.48 L 55.76 41.48 Z M 138.89 41.48 L 138.975 37.485 L 170 37.485 A 24.85 24.85 0 0 0 169.577 32.766 Q 169.036 29.967 167.801 27.746 A 14.14 14.14 0 0 0 166.727 26.095 A 10.437 10.437 0 0 0 160.788 22.249 Q 158.883 21.76 156.57 21.76 Q 149.09 21.76 145.605 26.35 A 15.153 15.153 0 0 0 143.285 30.949 Q 142.611 33.059 142.327 35.624 A 36.273 36.273 0 0 0 142.12 39.61 Q 142.12 45.3 143.584 49.251 A 14.898 14.898 0 0 0 145.52 52.913 Q 148.36 56.782 154.579 57.419 A 25.381 25.381 0 0 0 157.165 57.545 A 24.555 24.555 0 0 0 159.959 57.397 Q 162.952 57.053 164.764 55.91 A 6.765 6.765 0 0 0 165.113 55.675 Q 167.705 53.805 168.64 50.745 L 173.995 50.745 A 19.755 19.755 0 0 1 172 55.163 A 17.792 17.792 0 0 1 171.105 56.483 A 11.465 11.465 0 0 1 167.761 59.463 A 14.749 14.749 0 0 1 165.92 60.393 Q 162.605 61.795 157.165 61.795 A 26.952 26.952 0 0 1 151.346 61.207 Q 145.699 59.957 142.29 56.058 A 18.64 18.64 0 0 1 138.608 49.333 Q 137.733 46.576 137.433 43.251 A 40.444 40.444 0 0 1 137.275 39.61 A 37.087 37.087 0 0 1 137.761 33.406 Q 138.336 30.018 139.595 27.318 A 17.373 17.373 0 0 1 142.247 23.205 A 16.058 16.058 0 0 1 150.905 18.123 A 24.634 24.634 0 0 1 156.57 17.51 A 20.524 20.524 0 0 1 162.768 18.425 A 18.587 18.587 0 0 1 165.708 19.635 A 14.357 14.357 0 0 1 170.613 23.843 A 19.348 19.348 0 0 1 172.337 26.605 Q 174.176 30.159 174.667 35.495 A 45.055 45.055 0 0 1 174.845 39.61 L 174.845 41.48 L 138.89 41.48 Z M 190.995 35.955 L 190.995 60.945 L 186.15 60.945 L 186.15 18.36 L 190.995 18.36 L 190.995 25.5 Q 192.95 21.845 196.265 19.678 Q 198.881 17.967 202.978 17.607 A 26.21 26.21 0 0 1 205.275 17.51 A 20.745 20.745 0 0 1 209.76 17.966 Q 212.743 18.626 214.95 20.245 A 12.164 12.164 0 0 1 216.453 21.548 Q 219.384 24.542 220.141 30.13 A 31.416 31.416 0 0 1 220.405 34.34 L 220.405 60.945 L 215.56 60.945 L 215.56 34.595 Q 215.56 28.326 213.32 25.385 A 6.713 6.713 0 0 0 212.585 24.565 Q 209.61 21.76 204.085 21.76 A 17.71 17.71 0 0 0 200.327 22.144 A 14.452 14.452 0 0 0 197.37 23.12 A 9.869 9.869 0 0 0 193.027 27.013 A 12.353 12.353 0 0 0 192.695 27.583 A 12.186 12.186 0 0 0 191.602 30.43 Q 191.261 31.766 191.111 33.348 A 27.759 27.759 0 0 0 190.995 35.955 Z M 17.765 60.945 L 0 60.945 L 0 0.85 L 18.615 0.85 A 35.619 35.619 0 0 1 26.433 1.654 Q 31.554 2.807 35.3 5.61 A 20.449 20.449 0 0 1 38.42 8.5 A 24.535 24.535 0 0 1 43.226 17.18 Q 45.135 23.015 45.135 30.855 A 50.163 50.163 0 0 1 44.467 39.32 Q 43.674 43.941 41.942 47.616 A 23.512 23.512 0 0 1 38.292 53.21 Q 32.025 60.295 20.019 60.891 A 45.475 45.475 0 0 1 17.765 60.945 Z M 5.1 56.525 L 17.34 56.525 Q 25.925 56.525 30.855 53.423 A 17.083 17.083 0 0 0 37.809 44.81 A 21.136 21.136 0 0 0 37.91 44.54 A 32.707 32.707 0 0 0 39.47 38.442 Q 39.947 35.48 40.021 32.115 A 56.934 56.934 0 0 0 40.035 30.855 A 51.616 51.616 0 0 0 39.691 24.735 Q 39.315 21.585 38.525 18.881 A 28.811 28.811 0 0 0 37.953 17.128 A 18.029 18.029 0 0 0 34.805 11.587 A 16.376 16.376 0 0 0 31.068 8.33 A 17.547 17.547 0 0 0 26.305 6.266 Q 24.073 5.645 21.406 5.412 A 38.814 38.814 0 0 0 18.02 5.27 L 5.1 5.27 L 5.1 56.525 Z M 133.365 18.36 L 117.13 60.945 L 111.605 60.945 L 95.37 18.36 L 100.555 18.36 L 114.07 55.845 L 114.665 55.845 L 128.35 18.36 L 133.365 18.36 Z"
      vector-effect="non-scaling-stroke" />
  </g>
</svg>